<svg width="920" height="130" viewBox="0 0 920 130" fill="none" xmlns="http://www.w3.org/2000/svg">
<path d="M913.665 117.821C916.813 117.821 919.366 120.442 919.366 123.674C919.366 126.907 916.813 129.528 913.665 129.528C910.516 129.528 907.963 126.907 907.963 123.674C907.963 120.442 910.516 117.821 913.665 117.821Z" fill="#C7C7C7"/>
<path d="M485.935 9.72748e-05C489.083 9.72748e-05 491.636 2.62077 491.636 5.85355C491.636 9.08633 489.083 11.707 485.935 11.707C482.786 11.707 480.233 9.08633 480.233 5.85355C480.233 2.62077 482.786 9.72748e-05 485.935 9.72748e-05Z" fill="#C6C6C6"/>
<path d="M0.609619 123.674C0.609619 126.912 3.15694 129.528 6.31075 129.528C9.46457 129.528 12.0119 126.912 12.0119 123.674C12.0119 120.436 9.46457 117.821 6.31075 117.821C3.15694 117.821 0.609619 120.436 0.609619 123.674Z" fill="#C5C5C5" fill-opacity="0.89"/>
<path d="M433.738 9.72748e-05C436.887 9.72748e-05 439.439 2.62077 439.439 5.85355C439.439 9.08633 436.887 11.707 433.738 11.707C430.59 11.707 428.037 9.08633 428.037 5.85355C428.037 2.62077 430.59 9.72748e-05 433.738 9.72748e-05Z" fill="#C6C6C6"/>
<path opacity="0.19" d="M486.237 3.98524C485.388 3.98524 484.72 4.67022 484.72 5.54202V41.8459C484.72 59.562 498.761 73.9777 516.016 73.9777H883.982C899.569 73.9777 912.245 86.9923 912.245 102.996V123.296C912.245 124.168 912.912 124.853 913.761 124.853C914.61 124.853 915.277 124.168 915.277 123.296V102.996C915.277 85.2799 901.237 70.8642 883.982 70.8642H516.016C500.429 70.8642 487.753 57.8496 487.753 41.8459V5.54202C487.753 4.67022 487.086 3.98524 486.237 3.98524Z" fill="black"/>
<path opacity="0.19" d="M433.835 3.98524C432.986 3.98524 432.319 4.67022 432.319 5.54202V41.8459C432.319 57.8496 419.643 70.8642 404.056 70.8642H36.09C18.835 70.8642 4.79443 85.2799 4.79443 102.996V123.296C4.79443 124.168 5.46159 124.853 6.31069 124.853C7.1598 124.853 7.82695 124.168 7.82695 123.296V102.996C7.82695 86.9923 20.5029 73.9777 36.09 73.9777H404.056C421.311 73.9777 435.351 59.562 435.351 41.8459V5.54202C435.351 4.67022 434.684 3.98524 433.835 3.98524Z" fill="black"/>
<path opacity="0.19" d="M459.884 3.98537C459.035 3.98537 458.368 4.67034 458.368 5.54214V123.265C458.368 124.137 459.035 124.822 459.884 124.822C460.734 124.822 461.401 124.137 461.401 123.265V5.54214C461.401 4.67034 460.734 3.98537 459.884 3.98537Z" fill="black"/>
<path d="M454.183 123.674C454.183 126.912 456.73 129.528 459.884 129.528C463.038 129.528 465.585 126.912 465.585 123.674C465.585 120.436 463.038 117.821 459.884 117.821C456.73 117.821 454.183 120.436 454.183 123.674Z" fill="#C7C7C7"/>
<path d="M453.881 5.85355C453.881 2.61547 456.428 9.72748e-05 459.582 9.72748e-05C462.736 9.72748e-05 465.283 2.61547 465.283 5.85355C465.283 9.09164 462.736 11.707 459.582 11.707C456.428 11.707 453.881 9.09164 453.881 5.85355Z" fill="#C6C6C6"/>
</svg>
